<mxfile host="drawio-plugin" modified="2022-02-22T09:40:19.997Z" agent="5.0 (Macintosh; Intel Mac OS X 12_2_1) AppleWebKit/537.36 (KHTML, like Gecko) Chrome/89.0.4389.114 Safari/537.36" etag="1Zi01KazEIU3JnJLdygB" version="15.5.4" type="embed"><diagram id="DWjpSvbVxY2pOprUcE6g" name="Page-1"><mxGraphModel dx="1003" dy="574" grid="1" gridSize="10" guides="1" tooltips="1" connect="1" arrows="1" fold="1" page="1" pageScale="1" pageWidth="827" pageHeight="1169" math="0" shadow="0"><root><mxCell id="0"/><mxCell id="1" parent="0"/><mxCell id="22" value="&amp;nbsp; Analytical Data" style="rounded=0;whiteSpace=wrap;html=1;fillColor=#F5F5F5;fontColor=#333333;strokeColor=#666666;fontStyle=1;verticalAlign=top;align=left;sketch=1;fontFamily=Architects Daughter;fontSource=https%3A%2F%2Ffonts.googleapis.com%2Fcss%3Ffamily%3DArchitects%2BDaughter;" parent="1" vertex="1"><mxGeometry x="270" y="230" width="290" height="180" as="geometry"/></mxCell><mxCell id="23" value="Operational Data" style="rounded=0;whiteSpace=wrap;html=1;fillColor=#f5f5f5;fontColor=#333333;strokeColor=#666666;fontStyle=1;verticalAlign=top;sketch=1;fontFamily=Architects Daughter;fontSource=https%3A%2F%2Ffonts.googleapis.com%2Fcss%3Ffamily%3DArchitects%2BDaughter;" parent="1" vertex="1"><mxGeometry x="117" y="230" width="120" height="180" as="geometry"/></mxCell><mxCell id="AsHQjoa6ET488TH-mFAR-46" style="rounded=0;orthogonalLoop=1;jettySize=auto;html=1;sketch=1;fontFamily=Architects Daughter;fontSource=https%3A%2F%2Ffonts.googleapis.com%2Fcss%3Ffamily%3DArchitects%2BDaughter;" parent="1" target="AsHQjoa6ET488TH-mFAR-44" edge="1"><mxGeometry relative="1" as="geometry"><mxPoint x="400" y="290" as="sourcePoint"/></mxGeometry></mxCell><mxCell id="AsHQjoa6ET488TH-mFAR-47" style="rounded=0;orthogonalLoop=1;jettySize=auto;html=1;entryX=0;entryY=0.5;entryDx=0;entryDy=0;exitX=1.013;exitY=0.818;exitDx=0;exitDy=0;exitPerimeter=0;sketch=1;fontFamily=Architects Daughter;fontSource=https%3A%2F%2Ffonts.googleapis.com%2Fcss%3Ffamily%3DArchitects%2BDaughter;" parent="1" source="AsHQjoa6ET488TH-mFAR-43" target="AsHQjoa6ET488TH-mFAR-45" edge="1"><mxGeometry relative="1" as="geometry"/></mxCell><mxCell id="AsHQjoa6ET488TH-mFAR-43" value="raw" style="rounded=1;whiteSpace=wrap;html=1;fontStyle=1;sketch=1;fontFamily=Architects Daughter;fontSource=https%3A%2F%2Ffonts.googleapis.com%2Fcss%3Ffamily%3DArchitects%2BDaughter;" parent="1" vertex="1"><mxGeometry x="320" y="270" width="80" height="110" as="geometry"/></mxCell><mxCell id="AsHQjoa6ET488TH-mFAR-64" value="clean" style="text;html=1;strokeColor=none;fillColor=none;align=center;verticalAlign=middle;whiteSpace=wrap;rounded=0;sketch=1;fontFamily=Architects Daughter;fontSource=https%3A%2F%2Ffonts.googleapis.com%2Fcss%3Ffamily%3DArchitects%2BDaughter;" parent="1" vertex="1"><mxGeometry x="400" y="310" width="60" height="30" as="geometry"/></mxCell><mxCell id="AsHQjoa6ET488TH-mFAR-44" value="events" style="rounded=1;whiteSpace=wrap;html=1;fontStyle=1;sketch=1;fontFamily=Architects Daughter;fontSource=https%3A%2F%2Ffonts.googleapis.com%2Fcss%3Ffamily%3DArchitects%2BDaughter;" parent="1" vertex="1"><mxGeometry x="460" y="270" width="80" height="40" as="geometry"/></mxCell><mxCell id="AsHQjoa6ET488TH-mFAR-45" value="entities" style="rounded=1;whiteSpace=wrap;html=1;fontStyle=1;sketch=1;fontFamily=Architects Daughter;fontSource=https%3A%2F%2Ffonts.googleapis.com%2Fcss%3Ffamily%3DArchitects%2BDaughter;" parent="1" vertex="1"><mxGeometry x="460" y="340" width="80" height="40" as="geometry"/></mxCell><mxCell id="36" value="database" style="shape=cylinder3;whiteSpace=wrap;html=1;boundedLbl=1;backgroundOutline=1;size=10;verticalAlign=top;sketch=1;fontFamily=Architects Daughter;fontSource=https%3A%2F%2Ffonts.googleapis.com%2Fcss%3Ffamily%3DArchitects%2BDaughter;" parent="1" vertex="1"><mxGeometry x="136" y="340" width="72" height="50" as="geometry"/></mxCell><mxCell id="37" value="" style="shape=cylinder3;whiteSpace=wrap;html=1;boundedLbl=1;backgroundOutline=1;size=7;verticalAlign=top;rotation=90;sketch=1;fontFamily=Architects Daughter;fontSource=https%3A%2F%2Ffonts.googleapis.com%2Fcss%3Ffamily%3DArchitects%2BDaughter;" parent="1" vertex="1"><mxGeometry x="162" y="250" width="20" height="80" as="geometry"/></mxCell><mxCell id="21" value="" style="rounded=0;orthogonalLoop=1;jettySize=auto;html=1;startArrow=classic;startFill=1;endArrow=none;endFill=0;entryX=0.5;entryY=0;entryDx=0;entryDy=0;entryPerimeter=0;sketch=1;fontFamily=Architects Daughter;fontSource=https%3A%2F%2Ffonts.googleapis.com%2Fcss%3Ffamily%3DArchitects%2BDaughter;" parent="1" target="37" edge="1"><mxGeometry relative="1" as="geometry"><mxPoint x="320" y="290" as="sourcePoint"/></mxGeometry></mxCell><mxCell id="35" value="ingest" style="edgeLabel;html=1;align=center;verticalAlign=middle;resizable=0;points=[];sketch=1;fontFamily=Architects Daughter;fontSource=https%3A%2F%2Ffonts.googleapis.com%2Fcss%3Ffamily%3DArchitects%2BDaughter;" parent="21" vertex="1" connectable="0"><mxGeometry x="-0.0712" y="2" relative="1" as="geometry"><mxPoint x="20" y="33" as="offset"/></mxGeometry></mxCell><mxCell id="38" value="" style="rounded=0;orthogonalLoop=1;jettySize=auto;html=1;startArrow=classic;startFill=1;endArrow=none;endFill=0;entryX=1;entryY=0.5;entryDx=0;entryDy=0;entryPerimeter=0;sketch=1;fontFamily=Architects Daughter;fontSource=https%3A%2F%2Ffonts.googleapis.com%2Fcss%3Ffamily%3DArchitects%2BDaughter;" parent="1" target="36" edge="1"><mxGeometry relative="1" as="geometry"><mxPoint x="320" y="364" as="sourcePoint"/><mxPoint x="217" y="320" as="targetPoint"/></mxGeometry></mxCell><mxCell id="40" value="messaging" style="text;html=1;strokeColor=none;fillColor=none;align=center;verticalAlign=middle;whiteSpace=wrap;rounded=0;sketch=1;fontFamily=Architects Daughter;fontSource=https%3A%2F%2Ffonts.googleapis.com%2Fcss%3Ffamily%3DArchitects%2BDaughter;" parent="1" vertex="1"><mxGeometry x="136" y="273" width="60" height="30" as="geometry"/></mxCell></root></mxGraphModel></diagram></mxfile>